<svg id="Livello_1" data-name="Livello 1" xmlns="http://www.w3.org/2000/svg" viewBox="0 0 344.7 52"><defs><style>.cls-1{fill:#1d1d1b;}.cls-2{fill:#757575;}.cls-3{fill:#d10019;}</style></defs><title>logo-teatro-franco-parenti</title><path class="cls-1" d="M345.35,52.86V48.75A3.76,3.76,0,0,0,345,46.6a2.17,2.17,0,0,0-1.86-1,2.25,2.25,0,0,0-2.2,1.49h0V43.32H339.8v9.55h1.08V49.24a2.8,2.8,0,0,1,.54-2,1.89,1.89,0,0,1,1.42-.75,1.31,1.31,0,0,1,1.27.83,4.32,4.32,0,0,1,.15,1.4v4.11ZM336,48.48a6.67,6.67,0,0,0-2.71.42,2.17,2.17,0,0,0-1.3,2A2.2,2.2,0,0,0,334.43,53a2.55,2.55,0,0,0,2.49-1.46l.12,1.32h1.09a5.34,5.34,0,0,1-.15-1.49V48.63a3.2,3.2,0,0,0-.59-2.32,2.74,2.74,0,0,0-2.17-.69c-1.29,0-2.84.46-3,1.93l1,.17c.2-1,1-1.25,1.93-1.25,1.27,0,1.81.47,1.81,1.71v.3Zm.93,1.28a2.3,2.3,0,0,1-2.25,2.39c-.78,0-1.52-.37-1.52-1.23,0-1.46,1.74-1.61,2.86-1.61h.91Zm-15.78-4v7.07h1.08v-4a2.5,2.5,0,0,1,.42-1.61,1.76,1.76,0,0,1,1.29-.7,1.34,1.34,0,0,1,1.17.68,2.2,2.2,0,0,1,.25,1.19v4.48h1.08V49.05a2.75,2.75,0,0,1,.37-1.76,1.73,1.73,0,0,1,1.37-.78,1.33,1.33,0,0,1,1.18.73,3,3,0,0,1,.19,1.4v4.21h1.08V48.65a4,4,0,0,0-.32-2,2.13,2.13,0,0,0-1.78-1,2.48,2.48,0,0,0-2.29,1.68,2,2,0,0,0-2-1.68,2.34,2.34,0,0,0-2.1,1.54h0V45.79Zm-11.27,0v7.07H311v-4a2.5,2.5,0,0,1,.42-1.61,1.76,1.76,0,0,1,1.29-.7,1.34,1.34,0,0,1,1.17.68,2.2,2.2,0,0,1,.24,1.19v4.48h1.08V49.05a2.78,2.78,0,0,1,.39-1.76,1.73,1.73,0,0,1,1.37-.78,1.33,1.33,0,0,1,1.19.73,3.05,3.05,0,0,1,.18,1.4v4.21h1.08V48.65a4,4,0,0,0-.32-2,2.14,2.14,0,0,0-1.79-1A2.45,2.45,0,0,0,315,47.29a2,2,0,0,0-2-1.68,2.34,2.34,0,0,0-2.1,1.54h0V45.79Zm-3.76,2.69a6.67,6.67,0,0,0-2.71.42,2.17,2.17,0,0,0-1.3,2A2.2,2.2,0,0,0,304.56,53,2.56,2.56,0,0,0,307,51.54l.12,1.32h1.08a4.82,4.82,0,0,1-.15-1.49V48.63a3.2,3.2,0,0,0-.59-2.32,2.77,2.77,0,0,0-2.17-.69c-1.29,0-2.84.46-3,1.93l1,.17c.2-1,1-1.25,1.93-1.25,1.25,0,1.81.47,1.81,1.71v.3Zm.93,1.28a2.3,2.3,0,0,1-2.25,2.39c-.78,0-1.52-.37-1.52-1.23,0-1.46,1.74-1.61,2.86-1.61H307Zm-6.31,3.1V48.75a3.62,3.62,0,0,0-.37-2.15,2.17,2.17,0,0,0-1.86-1,2.23,2.23,0,0,0-2.18,1.49h-.05V43.32h-1.08v9.55h1.08V49.24a2.8,2.8,0,0,1,.54-2,1.92,1.92,0,0,1,1.44-.75,1.29,1.29,0,0,1,1.25.83,4.32,4.32,0,0,1,.15,1.4v4.11Zm-14.4-2.57A3.7,3.7,0,0,0,290.19,53a4.14,4.14,0,0,0,2.49-.7,2.66,2.66,0,0,0,1.07-2.17,2.36,2.36,0,0,0-.88-1.9,3.81,3.81,0,0,0-1.74-.73l-1.42-.36c-.9-.2-1.73-.44-1.73-1.51s1.13-1.52,2-1.52a2.35,2.35,0,0,1,2.34,1.68l1.08-.29A3.33,3.33,0,0,0,290,43.18c-1.66,0-3.23.79-3.23,2.62a2.35,2.35,0,0,0,.78,1.78,3.57,3.57,0,0,0,1.73.76l1.57.39c.83.2,1.63.59,1.63,1.56a1.59,1.59,0,0,1-.57,1.22,2.91,2.91,0,0,1-1.71.47,2.71,2.71,0,0,1-2.83-1.93Zm-5.47,2.57V48.75a3.76,3.76,0,0,0-.37-2.15,2.15,2.15,0,0,0-1.86-1,2.27,2.27,0,0,0-2.2,1.49h0V43.32h-1.08v9.55h1.08V49.24a2.8,2.8,0,0,1,.54-2,1.92,1.92,0,0,1,1.42-.75,1.3,1.3,0,0,1,1.27.83,4.35,4.35,0,0,1,.15,1.4v4.11Zm-6.5-.81-.83.07c-.9,0-1.13-.42-1.13-1.25V46.6H274v-.86h-1.58V43.87l-1.08.12v1.74h-1.25v.86h1.25v4.1c0,1.4.46,2.3,2,2.3l1-.09Zm-5.2-6.26h-1.09v3.76a2.72,2.72,0,0,1-.54,1.79,1.89,1.89,0,0,1-1.46.71,1.37,1.37,0,0,1-1.15-.66,2.87,2.87,0,0,1-.24-1.3v-4.3h-1.08v4.3a3.3,3.3,0,0,0,.56,2.11A2.29,2.29,0,0,0,266,53a2.4,2.4,0,0,0,2.17-1.54h0v1.4h1Zm-12.66,2v-3.4h2.37a2,2,0,0,1,1.32.32,1.49,1.49,0,0,1,.68,1.3,1.72,1.72,0,0,1-.49,1.25,2,2,0,0,1-1.64.53Zm5.65,5.11-1.88-4.42A2.46,2.46,0,0,0,262.05,46a2.65,2.65,0,0,0-1-2.08,3.39,3.39,0,0,0-2.17-.59H255.3v9.55h1.2V48.73h2.64l1.76,4.13Zm-17.59-4.25a2.12,2.12,0,0,1,2-2.17,1.91,1.91,0,0,1,1.88,2.17Zm3.95,2.1a2,2,0,0,1-1.9,1.37A2,2,0,0,1,244.8,51a3.57,3.57,0,0,1-.29-1.61h5.13c.05-2-.9-3.79-3.08-3.79s-3.27,1.76-3.27,3.71S244.4,53,246.53,53a3.06,3.06,0,0,0,3-2.07Zm-7.08-6.91-.46-.9-2.79,1.64.27.56Zm-4.23,4.81a2.11,2.11,0,0,1,2-2.17,1.92,1.92,0,0,1,1.88,2.17Zm3.95,2.1a2,2,0,0,1-1.9,1.37A2,2,0,0,1,237.44,51a3.58,3.58,0,0,1-.29-1.61h5.13c0-2-.9-3.79-3.08-3.79s-3.27,1.76-3.27,3.71S237,53,239.17,53a3.08,3.08,0,0,0,3-2.07Zm-9-4.93v7.07h1.08V49.31a2.7,2.7,0,0,1,.36-1.52,2,2,0,0,1,1.81-1.12h.22v-1l-.4,0c-1.13,0-1.74.9-2.07,1.85h0V45.79Zm-2.88,1a2.39,2.39,0,0,0-2-1.13c-2,0-2.91,1.95-2.91,3.71a4.34,4.34,0,0,0,.66,2.47,2.53,2.53,0,0,0,2.15,1.2,2.33,2.33,0,0,0,2.22-1.39h0v1.25h1V43.32h-1.08Zm0,3a2.21,2.21,0,0,1-.42,1.44,1.94,1.94,0,0,1-1.56.86c-1.51,0-1.81-1.74-1.81-2.89a3.54,3.54,0,0,1,.41-1.83,1.67,1.67,0,0,1,1.44-.9,2,2,0,0,1,1.59.79,2.39,2.39,0,0,1,.36,1.41Zm-10.87-4h-1v7.07h1.08V49.16a2.79,2.79,0,0,1,.56-1.89,1.89,1.89,0,0,1,1.46-.71,1.41,1.41,0,0,1,1.2.64,2.59,2.59,0,0,1,.2,1.3v4.37h1.08V49a4.49,4.49,0,0,0-.34-2.23,2.2,2.2,0,0,0-2-1.1,2.42,2.42,0,0,0-2.2,1.49h0Zm-4.42,3.38H211l1.47-4.57Zm-.64-5.86h-1.37l-3.1,9.55h1l.85-2.78h3.52l1,2.78h1.22Zm-11.43,5.16a6.67,6.67,0,0,0-2.71.42,2.17,2.17,0,0,0-1.3,2A2.2,2.2,0,0,0,200.32,53a2.52,2.52,0,0,0,2.47-1.46l.12,1.32H204a4.78,4.78,0,0,1-.15-1.49V48.63a3.2,3.2,0,0,0-.59-2.32,2.77,2.77,0,0,0-2.17-.69c-1.29,0-2.84.46-3,1.93l1,.17c.2-1,1.05-1.25,1.93-1.25,1.25,0,1.8.47,1.8,1.71v.3Zm.91,1.28a2.29,2.29,0,0,1-2.23,2.39c-.78,0-1.52-.37-1.52-1.23,0-1.46,1.74-1.61,2.86-1.61h.9Zm-7.33-3a2.41,2.41,0,0,0-2-1.13c-2,0-2.91,1.95-2.91,3.71a4.34,4.34,0,0,0,.66,2.47,2.48,2.48,0,0,0,2.15,1.2,2.35,2.35,0,0,0,2.22-1.39h0v1.25h1V43.32h-1.08Zm0,3a2.21,2.21,0,0,1-.42,1.44,2,2,0,0,1-1.56.86c-1.52,0-1.81-1.74-1.81-2.89a3.54,3.54,0,0,1,.41-1.83,1.67,1.67,0,0,1,1.44-.9,1.91,1.91,0,0,1,1.57.79,2.29,2.29,0,0,1,.37,1.41Zm-15.1-.53a4.13,4.13,0,0,1,.34-1.76,1.81,1.81,0,0,1,1.61-1,1.83,1.83,0,0,1,1.52.83,3.51,3.51,0,0,1,.46,1.93,3.93,3.93,0,0,1-.35,1.81,1.79,1.79,0,0,1-3.16.12,4.17,4.17,0,0,1-.41-1.93m-1.2,0c0,1.86.93,3.72,3,3.72s3.28-1.74,3.28-3.71-1-3.67-3.1-3.67-3.23,1.69-3.23,3.66m-.56,2.78-.85.07c-.88,0-1.12-.42-1.12-1.25V46.6h1.58v-.86h-1.58V43.87l-1.08.12v1.74H174.3v.86h1.25v4.1c0,1.4.46,2.3,2,2.3l1-.09Zm-4.32,0-.83.07c-.9,0-1.13-.42-1.13-1.25V46.6h1.57v-.86h-1.57V43.87l-1.08.12v1.74H170v.86h1.25v4.1c0,1.4.46,2.3,2,2.3l1-.09Zm-9.9-3.44a2.09,2.09,0,0,1,2-2.17,1.92,1.92,0,0,1,1.9,2.17Zm3.93,2.1a1.93,1.93,0,0,1-1.9,1.37A2,2,0,0,1,164.62,51a3.38,3.38,0,0,1-.3-1.61h5.13c.07-2-.88-3.79-3.08-3.79s-3.27,1.76-3.27,3.71S164.2,53,166.35,53a3.09,3.09,0,0,0,3-2.07Zm-9-4.93v7.07h1.08V49.31a2.85,2.85,0,0,1,.36-1.52,2,2,0,0,1,1.81-1.12h.24v-1l-.41,0c-1.15,0-1.74.9-2.06,1.85h0V45.79Zm-1.93-2.47h-1.18v1.24h1.18Zm-.05,2.47h-1.08v7.07h1.08Zm-8.87,6.06V44.33h1.74a2.7,2.7,0,0,1,2.42,1,4.42,4.42,0,0,1,.88,2.78,4.79,4.79,0,0,1-.69,2.55,2.77,2.77,0,0,1-2.61,1.22Zm-1.18,1h3.4a3.42,3.42,0,0,0,3-1.52,5.48,5.48,0,0,0,1-3.27,5.1,5.1,0,0,0-1.17-3.4,3.81,3.81,0,0,0-3.27-1.36h-3Z" transform="translate(-0.65 -1)"/><polygon class="cls-2" points="115.66 0 94.44 12.51 136.82 12.51 115.66 0"/><path class="cls-3" d="M137.49,42.62a.36.36,0,0,1-.36.36H95.42a.37.37,0,0,1-.36-.36V38.93a.36.36,0,0,1,.36-.34h41.71a.34.34,0,0,1,.36.34Z" transform="translate(-0.65 -1)"/><path class="cls-3" d="M99.26,37.27c2.44-14.23,7.28-18.47,8.68-19.41a.19.19,0,0,0,.09-.15V15.57a.36.36,0,0,0-.35-.36H95.41a.36.36,0,0,0-.34.36V37a.34.34,0,0,0,.34.34h3.74a.1.1,0,0,0,.12-.09" transform="translate(-0.65 -1)"/><path class="cls-3" d="M133.29,37.27C130.85,23,126,18.81,124.6,17.86a.19.19,0,0,1-.09-.15V15.57a.36.36,0,0,1,.36-.36h12.27a.35.35,0,0,1,.34.36V37a.34.34,0,0,1-.34.34h-3.74a.1.1,0,0,1-.12-.09" transform="translate(-0.65 -1)"/><path class="cls-3" d="M122.49,36.9a.34.34,0,0,1-.36.34H110.47a.34.34,0,0,1-.34-.34V15.57a.35.35,0,0,1,.34-.36h11.66a.36.36,0,0,1,.36.36Z" transform="translate(-0.65 -1)"/><polygon class="cls-1" points="0 14.23 0 18.62 5.62 18.62 5.62 36.39 10.8 36.39 10.8 18.62 16.35 18.62 16.35 14.23 0 14.23"/><path class="cls-1" d="M25.53,27.19H19.71c.17-1.88,1-3.42,3.06-3.42s2.66,1.64,2.76,3.42M30.27,30a10.55,10.55,0,0,0-1.67-6.43,7.51,7.51,0,0,0-6-2.91c-5.11,0-8,3.93-8,8.77s3.2,8.3,8.11,8.3a7.48,7.48,0,0,0,7.47-5.65l-4.4-.32a2.8,2.8,0,0,1-2.91,2.59c-2.07,0-3.17-1.59-3.17-3.52l0-.81Z" transform="translate(-0.65 -1)"/><path class="cls-1" d="M41.1,33.2a2.88,2.88,0,0,1-2.39,1.3,1.94,1.94,0,0,1-2.12-2.06c0-2.3,3.34-2.69,5.15-2.89v.62a4.77,4.77,0,0,1-.64,3m5.48-5.91c0-2,.17-3.79-1.52-5.15a8.62,8.62,0,0,0-5.2-1.49c-3.45,0-7.33,1.17-7.82,5.14l4.5.42c0-1.62,1.32-2.4,2.84-2.4a2.48,2.48,0,0,1,1.93.78,3.35,3.35,0,0,1,.42,2.17v.39a27.85,27.85,0,0,0-6.5,1,5.11,5.11,0,0,0-3.67,4.87c0,3.12,2.25,4.66,5.16,4.66A5.73,5.73,0,0,0,42,34.84a10.08,10.08,0,0,0,.23,2.56h4.71a8,8,0,0,1-.32-2.46Z" transform="translate(-0.65 -1)"/><path class="cls-1" d="M58.84,21H55.32V15.81l-4.15.32L50.77,21H47.89v3.77h2.67V32c0,1.61,0,3.57,1.32,4.67a7.06,7.06,0,0,0,4.23,1.07,13.18,13.18,0,0,0,3-.36V33.77a14.58,14.58,0,0,1-1.59.14c-2,0-2.18-.49-2.18-2.64V24.73h3.52Z" transform="translate(-0.65 -1)"/><path class="cls-1" d="M61.26,21V37.39H66V31.13c0-2.91.46-5.86,4.08-5.65V20.72l-.81-.07c-2.07-.15-3,1.66-3.52,3.4h-.07V21Z" transform="translate(-0.65 -1)"/><path class="cls-1" d="M81.81,29.35c0,2-.13,5.2-2.81,5.2s-2.69-4-2.69-5.87S76.48,23.8,79,23.8a2.14,2.14,0,0,1,2.25,1.47,12.34,12.34,0,0,1,.52,4.08m5.1,0c0-4.84-2.78-8.67-7.91-8.67s-7.79,3.72-7.79,8.51S74,37.71,79,37.71c4.84,0,7.91-3.71,7.91-8.4" transform="translate(-0.65 -1)"/><polygon class="cls-1" points="162.38 18.54 162.38 14.23 146.62 14.23 146.62 36.39 151.78 36.39 151.78 27.74 160.22 27.74 160.22 23.58 151.78 23.58 151.78 18.54 162.38 18.54"/><path class="cls-1" d="M305,27.19h-5.82c.17-1.88,1-3.42,3.08-3.42s2.64,1.64,2.74,3.42M309.72,30A10.56,10.56,0,0,0,308,23.56a7.51,7.51,0,0,0-6-2.91c-5.09,0-8,3.93-8,8.77s3.2,8.3,8.11,8.3a7.48,7.48,0,0,0,7.46-5.65l-4.4-.32a2.8,2.8,0,0,1-2.91,2.59c-2.07,0-3.16-1.59-3.16-3.52l0-.81Z" transform="translate(-0.65 -1)"/><path class="cls-1" d="M311.67,37.39h4.76V28.57a6,6,0,0,1,.54-2.91,2.27,2.27,0,0,1,2-1.22c2.4,0,2.17,2.46,2.17,4.13v8.82h4.76V27.25c0-1.49,0-3.55-.91-4.79a4.78,4.78,0,0,0-4-1.81,4.67,4.67,0,0,0-4.72,3.11h-.07V21h-4.49Z" transform="translate(-0.65 -1)"/><path class="cls-1" d="M338,21h-3.52V15.81l-4.15.32L329.88,21H327v3.77h2.67V32c0,1.61,0,3.57,1.32,4.67a7.1,7.1,0,0,0,4.25,1.07,13.16,13.16,0,0,0,3-.36V33.77a14.57,14.57,0,0,1-1.59.14c-2,0-2.18-.47-2.18-2.64V24.73H338Z" transform="translate(-0.65 -1)"/><rect class="cls-1" x="339.95" y="13.91" width="4.76" height="4.59"/><rect class="cls-1" x="339.95" y="19.97" width="4.76" height="16.42"/><path class="cls-1" d="M164.37,21V37.39h4.76V31.13c0-2.91.44-5.86,4.06-5.65V20.72l-.8-.07c-2.08-.15-3,1.66-3.52,3.4h-.07V21Z" transform="translate(-0.65 -1)"/><path class="cls-1" d="M184.59,30.16a4.77,4.77,0,0,1-.64,3,2.88,2.88,0,0,1-2.39,1.3,1.93,1.93,0,0,1-2.1-2.06c0-2.3,3.32-2.69,5.13-2.89Zm4.84-2.88c0-2,.17-3.79-1.51-5.15a8.68,8.68,0,0,0-5.2-1.49c-3.47,0-7.35,1.17-7.82,5.14l4.49.42c0-1.62,1.32-2.4,2.84-2.4a2.46,2.46,0,0,1,1.93.78,3.35,3.35,0,0,1,.42,2.17v.39a27.58,27.58,0,0,0-6.48,1,5.13,5.13,0,0,0-3.69,4.87c0,3.12,2.27,4.66,5.16,4.66a5.76,5.76,0,0,0,5.25-2.88,10.12,10.12,0,0,0,.22,2.56h4.72a7.56,7.56,0,0,1-.34-2.46Z" transform="translate(-0.65 -1)"/><path class="cls-1" d="M192.19,37.39h4.74V28.57a6,6,0,0,1,.56-2.91,2.26,2.26,0,0,1,2-1.22c2.39,0,2.17,2.46,2.17,4.13v8.82h4.76V27.25c0-1.49,0-3.55-.91-4.79a4.79,4.79,0,0,0-4-1.81,4.67,4.67,0,0,0-4.72,3.11h-.07V21h-4.49Z" transform="translate(-0.65 -1)"/><path class="cls-1" d="M223.66,27c-.32-3.86-3.35-6.31-7.18-6.31-5.16,0-8.21,3.66-8.21,8.7,0,4.84,2.95,8.36,7.92,8.36,4,0,7.08-2.42,7.46-6.48L219.14,31c-.17,1.52-1,2.84-2.69,2.84-2.71,0-2.74-2.84-2.74-4.84s.32-4.69,2.95-4.69c1.71,0,2.49,1.46,2.49,2.95Z" transform="translate(-0.65 -1)"/><path class="cls-1" d="M235.85,29.35c0,2-.14,5.2-2.83,5.2s-2.68-4-2.68-5.87.15-4.87,2.71-4.87a2.16,2.16,0,0,1,2.27,1.47,12.79,12.79,0,0,1,.53,4.08m5.09,0c0-4.84-2.78-8.67-7.92-8.67s-7.79,3.72-7.79,8.51S228,37.71,233,37.71c4.86,0,7.92-3.71,7.92-8.4" transform="translate(-0.65 -1)"/><path class="cls-1" d="M261,22.21a3,3,0,0,1-.71,2c-.9,1-1.95,1-3.16,1H254.2V19.26h2.88a4.5,4.5,0,0,1,2.84.63A2.93,2.93,0,0,1,261,22.21m5.23-.19a6.54,6.54,0,0,0-2.88-5.54c-1.83-1.25-3.81-1.25-6-1.25H249V37.39h5.16V29.18h3.34c2.35,0,4.38,0,6.3-1.54A7.28,7.28,0,0,0,266.22,22" transform="translate(-0.65 -1)"/><path class="cls-1" d="M276.59,30.16a4.76,4.76,0,0,1-.64,3,2.88,2.88,0,0,1-2.39,1.3,1.93,1.93,0,0,1-2.1-2.06c0-2.3,3.32-2.69,5.13-2.89Zm4.84-2.88c0-2,.17-3.79-1.5-5.15a8.71,8.71,0,0,0-5.22-1.49c-3.45,0-7.33,1.17-7.82,5.14l4.5.42c0-1.62,1.32-2.4,2.84-2.4a2.48,2.48,0,0,1,1.93.78,3.36,3.36,0,0,1,.42,2.17v.39a27.85,27.85,0,0,0-6.5,1,5.11,5.11,0,0,0-3.67,4.87c0,3.12,2.25,4.66,5.16,4.66a5.73,5.73,0,0,0,5.23-2.88,9.38,9.38,0,0,0,.24,2.56h4.71a8,8,0,0,1-.32-2.46Z" transform="translate(-0.65 -1)"/><path class="cls-1" d="M284.16,21V37.39h4.74V31.13c0-2.91.46-5.86,4.08-5.65V20.72l-.81-.07c-2.07-.15-3,1.66-3.52,3.4h-.07V21Z" transform="translate(-0.65 -1)"/></svg>