<?xml version="1.0" encoding="utf-8"?>
<!-- Generator: Adobe Illustrator 26.0.3, SVG Export Plug-In . SVG Version: 6.00 Build 0)  -->
<svg version="1.1" id="Livello_1" xmlns="http://www.w3.org/2000/svg" xmlns:xlink="http://www.w3.org/1999/xlink" x="0px" y="0px"
	 viewBox="0 0 344.7 52" style="enable-background:new 0 0 344.7 52;" xml:space="preserve">
<style type="text/css">
	.st0{fill:#70706F;}
	.st1{fill:#E20917;}
</style>
<g>
	<path d="M140,16v-3.7h-13.6v19.1h4.5v-7.5h7.3v-3.6h-7.3V16H140z M67.6,19.6c0.9,0,1.6,0.4,2,1.3c0.4,1.1,0.4,2.4,0.4,3.5
		c0,1.7-0.1,4.5-2.4,4.5c-2.3,0-2.3-3.5-2.3-5.1C65.2,22.2,65.4,19.6,67.6,19.6 M67.5,16.9c-4.3,0-6.7,3.2-6.7,7.3
		c0,4.1,2.4,7.4,6.7,7.4c4.2,0,6.8-3.2,6.8-7.2C74.4,20.2,72,16.9,67.5,16.9 M52.2,17.2v14.1h4.1V26c0-2.5,0.4-5,3.5-4.9V17
		l-0.7-0.1c-1.8-0.1-2.6,1.4-3,2.9h-0.1v-2.6H52.2z M50.2,17.2h-3v-4.4L43.6,13l-0.4,4.1h-2.5v3.3H43v6.2c0,1.4,0,3.1,1.1,4
		c0.9,0.8,2.5,0.9,3.6,0.9c0.8,0,1.8-0.1,2.6-0.3v-3.1c-0.5,0.1-1,0.1-1.4,0.1c-1.8,0-1.9-0.4-1.9-2.3v-5.6h3V17.2z M35.4,25.1
		c0,1,0,1.8-0.6,2.6c-0.5,0.7-1.2,1.1-2.1,1.1c-1.1,0-1.8-0.7-1.8-1.8c0-2,2.9-2.3,4.4-2.5V25.1z M39.9,31.4
		c-0.2-0.7-0.3-1.4-0.3-2.1v-6.6c0-1.7,0.1-3.3-1.3-4.4c-1.1-0.9-3-1.3-4.5-1.3c-3,0-6.3,1-6.7,4.4l3.9,0.4c0-1.4,1.1-2.1,2.5-2.1
		c0.6,0,1.3,0.2,1.7,0.7c0.4,0.5,0.4,1.3,0.4,1.9v0.3c-1.7,0.2-4,0.3-5.6,0.9c-1.9,0.7-3.2,2.1-3.2,4.2c0,2.7,2,4,4.5,4
		c2.1,0,3.3-0.8,4.5-2.5c0,0.7,0,1.5,0.2,2.2H39.9z M16.4,22.6c0.1-1.6,0.8-3,2.6-3c1.8,0,2.3,1.4,2.4,3H16.4z M25.5,25
		c0-1.9-0.3-3.9-1.4-5.5c-1.2-1.6-3.2-2.5-5.2-2.5c-4.4,0-6.9,3.4-6.9,7.5c0,4.2,2.8,7.2,7,7.2c4.8,0,6.4-4.2,6.4-4.9l-3.8-0.3
		c0,1.3-1.3,2.2-2.5,2.2c-1.8,0-2.7-1.4-2.7-3l0-0.7H25.5z M14.1,12.3H0v3.8h4.8v15.3h4.5V16.1h4.8V12.3z"/>
	<polygon class="st0" points="99.7,0 81.4,10.8 117.9,10.8 	"/>
	<path class="st1" d="M117.9,35.9c0,0.2-0.1,0.3-0.3,0.3h-36c-0.2,0-0.3-0.1-0.3-0.3v-3.2c0-0.2,0.1-0.3,0.3-0.3h36
		c0.2,0,0.3,0.1,0.3,0.3V35.9z"/>
	<path class="st1" d="M85,31.3c2.1-12.3,6.3-15.9,7.5-16.7c0,0,0.1,0,0.1-0.1v-1.8c0-0.2-0.1-0.3-0.3-0.3H81.7
		c-0.2,0-0.3,0.1-0.3,0.3V31c0,0.2,0.1,0.3,0.3,0.3h3.2C84.9,31.3,85,31.3,85,31.3"/>
	<path class="st1" d="M114.3,31.3c-2.1-12.3-6.3-15.9-7.5-16.7c0,0-0.1,0-0.1-0.1v-1.8c0-0.2,0.1-0.3,0.3-0.3h10.6
		c0.2,0,0.3,0.1,0.3,0.3V31c0,0.2-0.1,0.3-0.3,0.3h-3.2C114.4,31.3,114.3,31.3,114.3,31.3"/>
	<path class="st1" d="M105,30.9c0,0.2-0.1,0.3-0.3,0.3H94.7c-0.2,0-0.3-0.1-0.3-0.3V12.6c0-0.2,0.1-0.3,0.3-0.3h10.1
		c0.2,0,0.3,0.1,0.3,0.3V30.9z"/>
	<path d="M290.8,17.2h-3v-4.4l-3.6,0.3l-0.4,4.1h-2.5v3.3h2.3v6.2c0,1.4,0,3.1,1.1,4c0.9,0.8,2.5,0.9,3.6,0.9c0.8,0,1.8-0.1,2.6-0.3
		v-3.1c-0.5,0.1-1,0.1-1.4,0.1c-1.8,0-1.9-0.4-1.9-2.3v-5.6h3V17.2z M268.1,31.4h4.1v-7.6c0-0.9,0.1-1.7,0.5-2.5
		c0.3-0.6,1-1.1,1.7-1.1c2.1,0,1.9,2.1,1.9,3.6v7.6h4.1v-8.7c0-1.3,0-3.1-0.8-4.1c-0.8-1.1-2.1-1.6-3.5-1.6c-2.1,0-3.2,0.9-4.1,2.7
		H272v-2.4h-3.9V31.4z M257.3,22.6c0.1-1.6,0.8-3,2.6-3c1.8,0,2.3,1.4,2.4,3H257.3z M266.4,25c0-1.9-0.3-3.9-1.4-5.5
		c-1.2-1.6-3.2-2.5-5.2-2.5c-4.4,0-6.9,3.4-6.9,7.5c0,4.2,2.8,7.2,7,7.2c4.8,0,6.4-4.2,6.4-4.9l-3.8-0.3c0,1.3-1.3,2.2-2.5,2.2
		c-1.8,0-2.7-1.4-2.7-3l0-0.7H266.4z"/>
	<rect x="293" y="12" width="4.1" height="4"/>
	<rect x="293" y="17.2" width="4.1" height="14.1"/>
	<path d="M244.4,17.2v14.1h4.1V26c0-2.5,0.4-5,3.5-4.9V17l-0.7-0.1c-1.8-0.1-2.6,1.4-3,2.9h-0.1v-2.6H244.4z M237.9,25.1
		c0,1,0,1.8-0.6,2.6c-0.5,0.7-1.2,1.1-2.1,1.1c-1.1,0-1.8-0.7-1.8-1.8c0-2,2.9-2.3,4.4-2.5V25.1z M242.3,31.4
		c-0.2-0.7-0.3-1.4-0.3-2.1v-6.6c0-1.7,0.1-3.3-1.3-4.4c-1.1-0.9-3-1.3-4.5-1.3c-3,0-6.3,1-6.7,4.4l3.9,0.4c0-1.4,1.1-2.1,2.5-2.1
		c0.6,0,1.3,0.2,1.7,0.7c0.4,0.5,0.4,1.3,0.4,1.9v0.3c-1.7,0.2-4,0.3-5.6,0.9c-1.9,0.7-3.2,2.1-3.2,4.2c0,2.7,1.9,4,4.5,4
		c2.1,0,3.3-0.8,4.5-2.5c0,0.7,0,1.5,0.2,2.2H242.3z M218.6,20.8v-5.1h2.5c0.8,0,1.8,0,2.5,0.5c0.6,0.5,0.9,1.3,0.9,2
		c0,0.6-0.2,1.2-0.6,1.7c-0.8,0.8-1.7,0.8-2.7,0.8H218.6z M218.6,24.3h2.9c2,0,3.8,0,5.4-1.3c1.4-1.2,2.1-3,2.1-4.8
		c0-2-0.9-3.6-2.5-4.8c-1.6-1.1-3.3-1.1-5.2-1.1h-7.2v19.1h4.5V24.3z M200.3,19.6c0.9,0,1.6,0.4,1.9,1.3c0.4,1.1,0.4,2.4,0.4,3.5
		c0,1.7-0.1,4.5-2.4,4.5c-2.3,0-2.3-3.5-2.3-5.1C198,22.2,198.1,19.6,200.3,19.6 M200.3,16.9c-4.3,0-6.7,3.2-6.7,7.3
		c0,4.1,2.4,7.4,6.7,7.4c4.2,0,6.8-3.2,6.8-7.2C207.1,20.2,204.7,16.9,200.3,16.9 M192.2,22.4c-0.3-3.3-2.9-5.4-6.2-5.4
		c-4.5,0-7.1,3.1-7.1,7.5c0,4.2,2.5,7.2,6.8,7.2c3.5,0,6.1-2.1,6.4-5.6l-3.9-0.2c-0.1,1.3-0.9,2.5-2.3,2.5c-2.3,0-2.4-2.5-2.4-4.2
		c0-1.8,0.3-4,2.5-4c1.5,0,2.1,1.3,2.1,2.5L192.2,22.4z M165.1,31.4h4.1v-7.6c0-0.9,0.1-1.7,0.5-2.5c0.3-0.6,1-1.1,1.7-1.1
		c2.1,0,1.9,2.1,1.9,3.6v7.6h4.1v-8.7c0-1.3,0-3.1-0.8-4.1c-0.8-1.1-2.1-1.6-3.5-1.6c-2.1,0-3.2,0.9-4.1,2.7H169v-2.4h-3.9V31.4z
		 M158.6,25.1c0,1,0,1.8-0.6,2.6c-0.5,0.7-1.2,1.1-2.1,1.1c-1.1,0-1.8-0.7-1.8-1.8c0-2,2.9-2.3,4.4-2.5V25.1z M163,31.4
		c-0.2-0.7-0.3-1.4-0.3-2.1v-6.6c0-1.7,0.1-3.3-1.3-4.4c-1.1-0.9-3-1.3-4.5-1.3c-3,0-6.3,1-6.7,4.4l3.9,0.4c0-1.4,1.1-2.1,2.5-2.1
		c0.6,0,1.3,0.2,1.7,0.7c0.4,0.5,0.4,1.3,0.4,1.9v0.3c-1.7,0.2-4,0.3-5.6,0.9c-1.9,0.7-3.2,2.1-3.2,4.2c0,2.7,1.9,4,4.5,4
		c2.1,0,3.3-0.8,4.5-2.5c0,0.7,0,1.5,0.2,2.2H163z M141.1,17.2v14.1h4.1V26c0-2.5,0.4-5,3.5-4.9V17l-0.7-0.1c-1.8-0.1-2.6,1.4-3,2.9
		h-0.1v-2.6H141.1z"/>
	<path d="M0,51.9h3.2c1.2,0,2.1-0.4,2.8-1.4c0.6-0.9,0.9-2,0.9-3.1c0-1.2-0.3-2.3-1.1-3.2C5,43.3,4.1,43,2.8,43H0V51.9z M1.1,50.9
		v-7h1.6c0.9,0,1.6,0.1,2.3,0.9c0.6,0.7,0.8,1.7,0.8,2.6c0,0.8-0.2,1.7-0.6,2.4c-0.6,0.9-1.4,1.1-2.4,1.1H1.1z M12.5,49
		c0,1.2-0.8,2.2-2.1,2.2c-0.7,0-1.4-0.3-1.4-1.2c0-1.4,1.6-1.5,2.7-1.5h0.8V49z M11.7,47.8c-0.8,0-1.8,0-2.5,0.4
		c-0.7,0.3-1.2,1-1.2,1.8c0,1.3,1.1,2,2.3,2c1,0,1.8-0.4,2.3-1.4l0.1,1.2h1c-0.1-0.4-0.1-0.9-0.1-1.4v-2.5c0-0.8,0-1.6-0.5-2.2
		c-0.5-0.6-1.3-0.6-2-0.6c-1.2,0-2.7,0.4-2.8,1.8l0.9,0.2c0.2-0.9,1-1.2,1.8-1.2c1.2,0,1.7,0.4,1.7,1.6v0.3H11.7z M16.3,43h-1v8.9h1
		V43z M27.4,51.1H25V43h-0.8c-0.7,0.9-1.7,1.6-2.7,2.1v1.1c0.9-0.5,1.7-1.1,2.4-1.9v6.7h-2.7v0.8h6.2V51.1z M28.5,50.2
		c0.4,1.2,1.5,1.8,2.8,1.8c2.7,0,3.6-2.5,3.6-4.8c0-2.3-0.9-4.4-3.5-4.4c-1.7,0-3.1,1.3-3.1,3c0,1.7,1.3,2.9,2.9,2.9
		c1.2,0,2.1-0.6,2.6-1.6h0c0,1.6-0.5,3.9-2.6,3.9c-0.9,0-1.6-0.4-1.9-1.2L28.5,50.2z M31.5,47.9c-1.2,0-2.1-0.8-2.1-2
		c0-1.2,0.8-2.1,2.1-2.1c1.2,0,2.1,0.8,2.1,2C33.6,46.9,32.7,47.9,31.5,47.9 M38.6,51.9v-0.3c0-1.3,0.4-3.1,0.9-4.3
		c0.6-1.3,1.3-2.5,2.2-3.6V43h-5.9l-0.1,1h4.8c-1.9,2.2-3.1,5-3.1,7.9H38.6z M49.1,51h-4.9l2.9-2.3c1-0.8,1.9-1.8,1.9-3.2
		c0-1.7-1.6-2.7-3.1-2.7c-1.7,0-2.9,1-3.2,2.6l1,0.3c0.1-1.1,1-2,2.1-2c1,0,2,0.7,2,1.8c0,1.1-0.8,1.9-1.6,2.6L42.8,51v0.9h6.3V51z
		 M52.3,50.4h-1.4v1.5h1.4V50.4z M58.6,51.9v-4.2h3.6v-0.9h-3.6V44h4.3v-1h-5.4v8.9H58.6z M63.2,48.5c0,1.7,0.9,3.5,2.8,3.5
		c2,0,3.1-1.6,3.1-3.5c0-1.7-1-3.4-2.9-3.4C64.2,45.1,63.2,46.7,63.2,48.5 M64.3,48.5c0-0.5,0.1-1.2,0.3-1.6
		c0.3-0.6,0.9-0.9,1.5-0.9c0.6,0,1.1,0.3,1.4,0.8c0.3,0.5,0.4,1.2,0.4,1.8c0,0.6-0.1,1.2-0.3,1.7c-0.3,0.6-0.8,0.9-1.5,0.9
		c-0.6,0-1.2-0.3-1.4-0.8C64.4,49.8,64.3,49.1,64.3,48.5 M71.4,45.3h-1v6.6h1v-3.4c0-0.7,0.1-1.3,0.5-1.8c0.3-0.4,0.8-0.7,1.4-0.7
		c0.4,0,0.9,0.2,1.1,0.6c0.2,0.3,0.2,0.8,0.2,1.2v4.1h1v-3.6c0-0.6,0-1.5-0.3-2.1c-0.4-0.7-1.1-1-1.9-1c-0.9,0-1.7,0.6-2,1.4h0V45.3
		z M81.5,49c0,0.5-0.1,0.9-0.4,1.3c-0.3,0.5-0.9,0.8-1.4,0.8c-1.4,0-1.7-1.6-1.7-2.7c0-0.6,0.1-1.2,0.4-1.7c0.3-0.5,0.8-0.8,1.3-0.8
		s1.2,0.3,1.5,0.7c0.3,0.4,0.3,0.9,0.3,1.3V49z M81.5,46.2c-0.5-0.7-1.1-1.1-1.9-1.1c-1.9,0-2.7,1.8-2.7,3.5c0,0.8,0.2,1.6,0.6,2.3
		c0.5,0.7,1.1,1.1,2,1.1c1,0,1.6-0.5,2.1-1.3h0v1.2h0.9V43h-1V46.2z M88.5,49c0,1.2-0.8,2.2-2.1,2.2c-0.7,0-1.4-0.3-1.4-1.2
		c0-1.4,1.6-1.5,2.7-1.5h0.8V49z M87.6,47.8c-0.8,0-1.8,0-2.5,0.4c-0.7,0.3-1.2,1-1.2,1.8c0,1.3,1.1,2,2.3,2c1,0,1.8-0.4,2.3-1.4
		l0.1,1.2h1c-0.1-0.4-0.1-0.9-0.1-1.4v-2.5c0-0.8,0-1.6-0.5-2.2c-0.5-0.6-1.3-0.6-2-0.6c-1.2,0-2.7,0.4-2.8,1.8l0.9,0.2
		c0.2-0.9,1-1.2,1.8-1.2c1.2,0,1.7,0.4,1.7,1.6v0.3H87.6z M94.3,51.1l-0.8,0.1c-0.8,0-1-0.4-1-1.2v-4h1.5v-0.8h-1.5v-1.7l-1,0.1v1.6
		h-1.2v0.8h1.2v3.8c0,1.3,0.4,2.1,1.9,2.1l1-0.1V51.1z M94.8,48.5c0,1.7,0.9,3.5,2.8,3.5c2,0,3.1-1.6,3.1-3.5c0-1.7-1-3.4-2.9-3.4
		C95.8,45.1,94.8,46.7,94.8,48.5 M95.9,48.5c0-0.5,0.1-1.2,0.3-1.6c0.3-0.6,0.9-0.9,1.5-0.9c0.6,0,1.1,0.3,1.4,0.8
		c0.3,0.5,0.4,1.2,0.4,1.8c0,0.6-0.1,1.2-0.3,1.7c-0.3,0.6-0.8,0.9-1.5,0.9c-0.6,0-1.2-0.3-1.4-0.8C96,49.8,95.9,49.1,95.9,48.5
		 M109.4,49.9c-0.3,0.8-0.9,1.3-1.8,1.3c-0.7,0-1.4-0.4-1.7-1c-0.2-0.5-0.3-1-0.3-1.5h4.8c0.1-1.8-0.8-3.5-2.9-3.5c-2,0-3,1.6-3,3.5
		c0,1.8,1,3.4,3,3.4c1.3,0,2.4-0.7,2.8-1.9L109.4,49.9z M105.8,47.9c0-1,0.8-2,1.8-2c1.2,0,1.8,0.9,1.8,2H105.8z M119.1,49
		c0,0.5-0.1,0.9-0.4,1.3c-0.3,0.5-0.9,0.8-1.4,0.8c-1.4,0-1.7-1.6-1.7-2.7c0-0.6,0.1-1.2,0.4-1.7c0.3-0.5,0.8-0.8,1.3-0.8
		s1.2,0.3,1.5,0.7c0.3,0.4,0.3,0.9,0.3,1.3V49z M119.1,46.2c-0.5-0.7-1.1-1.1-1.9-1.1c-1.9,0-2.7,1.8-2.7,3.5c0,0.8,0.2,1.6,0.6,2.3
		c0.5,0.7,1.1,1.1,2,1.1c1,0,1.6-0.5,2.1-1.3h0v1.2h0.9V43h-1V46.2z M122.9,45.3h-1v6.6h1V45.3z M123,43h-1.1v1.1h1.1V43z
		 M124.7,45.3v6.6h1v-3.3c0-0.5,0.1-0.9,0.3-1.4c0.4-0.7,0.9-1,1.7-1h0.2v-1l-0.4,0c-1.1,0-1.6,0.8-1.9,1.7h0v-1.5H124.7z
		 M133.2,49.9c-0.3,0.8-0.9,1.3-1.8,1.3c-0.7,0-1.4-0.4-1.7-1c-0.2-0.5-0.3-1-0.3-1.5h4.8c0.1-1.8-0.8-3.5-2.9-3.5c-2,0-3,1.6-3,3.5
		c0,1.8,1,3.4,3,3.4c1.3,0,2.4-0.7,2.8-1.9L133.2,49.9z M129.5,47.9c0-1,0.8-2,1.9-2c1.2,0,1.8,0.9,1.8,2H129.5z M138.7,51.1
		l-0.8,0.1c-0.8,0-1-0.4-1-1.2v-4h1.5v-0.8h-1.5v-1.7l-1,0.1v1.6h-1.2v0.8h1.2v3.8c0,1.3,0.4,2.1,1.9,2.1l1-0.1V51.1z M143.1,51.1
		l-0.8,0.1c-0.8,0-1-0.4-1-1.2v-4h1.5v-0.8h-1.5v-1.7l-1,0.1v1.6h-1.2v0.8h1.2v3.8c0,1.3,0.4,2.1,1.9,2.1l1-0.1V51.1z M143.6,48.5
		c0,1.7,0.9,3.5,2.8,3.5c2,0,3.1-1.6,3.1-3.5c0-1.7-1-3.4-2.9-3.4C144.6,45.1,143.6,46.7,143.6,48.5 M144.7,48.5
		c0-0.5,0.1-1.2,0.3-1.6c0.3-0.6,0.9-0.9,1.5-0.9c0.6,0,1.1,0.3,1.4,0.8c0.3,0.5,0.4,1.2,0.4,1.8c0,0.6-0.1,1.2-0.3,1.7
		c-0.3,0.6-0.8,0.9-1.5,0.9c-0.6,0-1.2-0.3-1.4-0.8C144.8,49.8,144.7,49.1,144.7,48.5 M158,49c0,0.5-0.1,0.9-0.4,1.3
		c-0.3,0.5-0.9,0.8-1.4,0.8c-1.4,0-1.7-1.6-1.7-2.7c0-0.6,0.1-1.2,0.4-1.7c0.3-0.5,0.8-0.8,1.3-0.8c0.6,0,1.2,0.3,1.5,0.7
		c0.3,0.4,0.3,0.9,0.3,1.3V49z M158,46.2c-0.5-0.7-1.1-1.1-1.9-1.1c-1.9,0-2.7,1.8-2.7,3.5c0,0.8,0.2,1.6,0.6,2.3
		c0.5,0.7,1.1,1.1,2,1.1c1,0,1.6-0.5,2.1-1.3h0v1.2h0.9V43h-1V46.2z M165,49c0,1.2-0.8,2.2-2.1,2.2c-0.7,0-1.4-0.3-1.4-1.2
		c0-1.4,1.6-1.5,2.7-1.5h0.8V49z M164.1,47.8c-0.8,0-1.8,0-2.5,0.4c-0.7,0.3-1.2,1-1.2,1.8c0,1.3,1.1,2,2.3,2c1,0,1.8-0.4,2.3-1.4
		l0.1,1.2h1c-0.1-0.4-0.1-0.9-0.1-1.4v-2.5c0-0.8,0-1.6-0.5-2.2c-0.5-0.6-1.3-0.6-2-0.6c-1.2,0-2.7,0.4-2.8,1.8l0.9,0.2
		c0.2-0.9,1-1.2,1.8-1.2c1.2,0,1.7,0.4,1.7,1.6v0.3H164.1z M174,43h-1.3l-2.9,8.9h0.9l0.8-2.6h3.3l0.9,2.6h1.1L174,43z M174.6,48.4
		h-2.7l1.4-4.3L174.6,48.4z M178.9,45.3h-1v6.6h1v-3.4c0-0.7,0.1-1.3,0.5-1.8c0.3-0.4,0.8-0.7,1.4-0.7c0.4,0,0.9,0.2,1.1,0.6
		c0.2,0.3,0.2,0.8,0.2,1.2v4.1h1v-3.6c0-0.6,0-1.5-0.3-2.1c-0.4-0.7-1.1-1-1.9-1c-0.9,0-1.7,0.6-2,1.4h0V45.3z M189.1,49
		c0,0.5-0.1,0.9-0.4,1.3c-0.3,0.5-0.9,0.8-1.4,0.8c-1.4,0-1.7-1.6-1.7-2.7c0-0.6,0.1-1.2,0.4-1.7c0.3-0.5,0.8-0.8,1.3-0.8
		c0.6,0,1.2,0.3,1.5,0.7c0.3,0.4,0.3,0.9,0.3,1.3V49z M189.1,46.2c-0.5-0.7-1.1-1.1-1.9-1.1c-1.9,0-2.7,1.8-2.7,3.5
		c0,0.8,0.2,1.6,0.6,2.3c0.5,0.7,1.1,1.1,2,1.1c1,0,1.6-0.5,2.1-1.3h0v1.2h0.9V43h-1V46.2z M191.8,45.3v6.6h1v-3.3
		c0-0.5,0.1-0.9,0.3-1.4c0.4-0.7,0.9-1,1.7-1h0.2v-1l-0.4,0c-1.1,0-1.6,0.8-1.9,1.7h0v-1.5H191.8z M200.3,49.9
		c-0.3,0.8-0.9,1.3-1.8,1.3c-0.7,0-1.4-0.4-1.7-1c-0.2-0.5-0.3-1-0.3-1.5h4.8c0.1-1.8-0.8-3.5-2.9-3.5c-2,0-3,1.6-3,3.5
		c0,1.8,1,3.4,3,3.4c1.3,0,2.4-0.7,2.8-1.9L200.3,49.9z M196.6,47.9c0-1,0.8-2,1.8-2c1.2,0,1.8,0.9,1.8,2H196.6z M200.5,43.4
		l-0.4-0.8l-2.6,1.5l0.3,0.5L200.5,43.4z M207.2,49.9c-0.3,0.8-0.9,1.3-1.8,1.3c-0.7,0-1.4-0.4-1.7-1c-0.2-0.5-0.3-1-0.3-1.5h4.8
		c0.1-1.8-0.8-3.5-2.9-3.5c-2,0-3,1.6-3,3.5c0,1.8,1,3.4,3,3.4c1.3,0,2.4-0.7,2.8-1.9L207.2,49.9z M203.6,47.9c0-1,0.8-2,1.8-2
		c1.2,0,1.8,0.9,1.8,2H203.6z M219.2,51.9l-1.7-4.1c1-0.3,1.7-1.2,1.7-2.3c0-0.8-0.3-1.5-0.9-1.9c-0.6-0.5-1.3-0.5-2-0.5h-3.3v8.9
		h1.1V48h2.5l1.6,3.8H219.2z M213.9,47.1V44h2.2c0.5,0,0.8,0,1.2,0.3c0.4,0.3,0.6,0.7,0.6,1.2c0,0.4-0.1,0.9-0.5,1.2
		c-0.4,0.5-0.9,0.5-1.5,0.5H213.9z M225.7,45.3h-1v3.5c0,0.6-0.1,1.2-0.5,1.7c-0.3,0.4-0.8,0.7-1.4,0.7c-0.4,0-0.9-0.3-1.1-0.6
		c-0.2-0.3-0.2-0.8-0.2-1.2v-4h-1v4c0,0.7,0.1,1.4,0.5,2c0.4,0.5,1,0.7,1.7,0.7c0.9,0,1.7-0.6,2-1.4h0v1.3h0.9V45.3z M230.6,51.1
		l-0.8,0.1c-0.8,0-1-0.4-1-1.2v-4h1.5v-0.8h-1.5v-1.7l-1,0.1v1.6h-1.2v0.8h1.2v3.8c0,1.3,0.4,2.1,1.9,2.1l1-0.1V51.1z M236.8,51.9
		V48c0-0.7,0.1-1.3-0.3-2c-0.4-0.6-1-0.9-1.7-0.9c-1,0-1.6,0.5-2,1.4h0V43h-1v8.9h1v-3.4c0-0.7,0.1-1.3,0.5-1.8
		c0.3-0.4,0.8-0.7,1.3-0.7c0.5,0,1,0.3,1.2,0.8c0.1,0.4,0.1,0.9,0.1,1.3v3.8H236.8z M241.2,49.5c0.6,1.7,1.8,2.5,3.6,2.5
		c0.8,0,1.7-0.2,2.3-0.6c0.6-0.5,1-1.2,1-2c0-0.7-0.3-1.3-0.8-1.8c-0.5-0.4-1-0.6-1.6-0.7l-1.3-0.3c-0.8-0.2-1.6-0.4-1.6-1.4
		c0-1,1.1-1.4,1.9-1.4c0.9,0,2,0.6,2.2,1.6l1-0.3c-0.5-1.4-1.7-2.2-3.2-2.2c-1.5,0-3,0.7-3,2.4c0,0.6,0.3,1.2,0.7,1.6
		c0.5,0.4,1,0.6,1.6,0.7l1.5,0.4c0.8,0.2,1.5,0.6,1.5,1.4c0,0.4-0.2,0.9-0.5,1.1c-0.4,0.3-1.1,0.4-1.6,0.4c-1.2,0-2.3-0.6-2.6-1.8
		L241.2,49.5z M254.7,51.9V48c0-0.7,0.1-1.3-0.3-2c-0.4-0.6-1-0.9-1.7-0.9c-1,0-1.6,0.5-2,1.4h0V43h-1v8.9h1v-3.4
		c0-0.7,0.1-1.3,0.5-1.8c0.3-0.4,0.8-0.7,1.3-0.7c0.5,0,1,0.3,1.2,0.8c0.1,0.4,0.1,0.9,0.1,1.3v3.8H254.7z M260.6,49
		c0,1.2-0.8,2.2-2.1,2.2c-0.7,0-1.4-0.3-1.4-1.2c0-1.4,1.6-1.5,2.7-1.5h0.8V49z M259.7,47.8c-0.8,0-1.8,0-2.5,0.4
		c-0.7,0.3-1.2,1-1.2,1.8c0,1.3,1.1,2,2.3,2c1,0,1.8-0.4,2.3-1.4l0.1,1.2h1c-0.1-0.4-0.1-0.9-0.1-1.4v-2.5c0-0.8,0-1.6-0.5-2.2
		c-0.5-0.6-1.3-0.6-2-0.6c-1.2,0-2.7,0.4-2.8,1.8l0.9,0.2c0.2-0.9,1-1.2,1.8-1.2c1.2,0,1.7,0.4,1.7,1.6v0.3H259.7z M263.2,45.3v6.6
		h1v-3.8c0-0.5,0.1-1.1,0.4-1.5c0.3-0.3,0.7-0.6,1.2-0.6c0.4,0,0.9,0.2,1.1,0.6c0.2,0.3,0.2,0.8,0.2,1.1v4.2h1v-3.5
		c0-0.6,0-1.1,0.4-1.6c0.3-0.4,0.8-0.7,1.3-0.7c0.5,0,0.9,0.3,1.1,0.7c0.2,0.4,0.2,0.9,0.2,1.3v3.9h1V48c0-0.6,0-1.3-0.3-1.9
		c-0.3-0.6-1-0.9-1.7-0.9c-1,0-1.8,0.7-2.1,1.6c-0.2-0.9-0.9-1.6-1.9-1.6c-0.9,0-1.6,0.6-2,1.4h0v-1.3H263.2z M273.8,45.3v6.6h1
		v-3.8c0-0.5,0.1-1.1,0.4-1.5c0.3-0.3,0.7-0.6,1.2-0.6c0.4,0,0.9,0.2,1.1,0.6c0.2,0.3,0.2,0.8,0.2,1.1v4.2h1v-3.5
		c0-0.6,0-1.1,0.4-1.6c0.3-0.4,0.8-0.7,1.3-0.7c0.5,0,0.9,0.3,1.1,0.7c0.2,0.4,0.2,0.9,0.2,1.3v3.9h1V48c0-0.6,0-1.3-0.3-1.9
		c-0.3-0.6-1-0.9-1.7-0.9c-1,0-1.8,0.7-2.1,1.6c-0.2-0.9-0.9-1.6-1.8-1.6c-0.9,0-1.6,0.6-2,1.4h0v-1.3H273.8z M288.5,49
		c0,1.2-0.8,2.2-2.1,2.2c-0.7,0-1.4-0.3-1.4-1.2c0-1.4,1.6-1.5,2.7-1.5h0.8V49z M287.7,47.8c-0.8,0-1.8,0-2.5,0.4
		c-0.7,0.3-1.2,1-1.2,1.8c0,1.3,1.1,2,2.3,2c1,0,1.8-0.4,2.3-1.4l0.1,1.2h1c-0.1-0.4-0.1-0.9-0.1-1.4v-2.5c0-0.8,0-1.6-0.5-2.2
		c-0.5-0.6-1.3-0.6-2-0.6c-1.2,0-2.7,0.4-2.8,1.8l0.9,0.2c0.2-0.9,1-1.2,1.8-1.2c1.2,0,1.7,0.4,1.7,1.6v0.3H287.7z M296.4,51.9V48
		c0-0.7,0.1-1.3-0.3-2c-0.4-0.6-1-0.9-1.7-0.9c-1,0-1.6,0.5-2,1.4h0V43h-1v8.9h1v-3.4c0-0.7,0.1-1.3,0.5-1.8
		c0.3-0.4,0.8-0.7,1.3-0.7c0.5,0,1,0.3,1.2,0.8c0.1,0.4,0.1,0.9,0.1,1.3v3.8H296.4z"/>
</g>
</svg>
