<?xml version="1.0" encoding="utf-8"?>
<!-- Generator: Adobe Illustrator 26.0.3, SVG Export Plug-In . SVG Version: 6.00 Build 0)  -->
<svg version="1.1" id="Livello_1" xmlns="http://www.w3.org/2000/svg" xmlns:xlink="http://www.w3.org/1999/xlink" x="0px" y="0px"
	 viewBox="0 0 344.7 52" style="enable-background:new 0 0 344.7 52;" xml:space="preserve">
<style type="text/css">
	.st0{fill:#1D1D1B;}
	.st1{fill:#757575;}
	.st2{fill:#D10019;}
</style>
<path class="st0" d="M344.7,51.9v-4.1c0.1-0.7,0-1.5-0.4-2.2c-0.4-0.6-1.1-1-1.9-1c-1,0-1.9,0.6-2.2,1.5l0,0v-3.8h-1.1v9.5h1.1v-3.6
	c-0.1-0.7,0.1-1.4,0.5-2c0.3-0.4,0.9-0.7,1.4-0.8c0.6,0,1.1,0.3,1.3,0.8c0.1,0.5,0.2,0.9,0.1,1.4v4.1L344.7,51.9z M335.4,47.5
	c-0.9,0-1.8,0.1-2.7,0.4c-0.8,0.3-1.3,1.1-1.3,2c0,1.2,1.1,2.2,2.3,2.1c0.1,0,0.1,0,0.2,0c1.1,0.1,2-0.5,2.5-1.5l0.1,1.3h1.1
	c-0.1-0.5-0.2-1-0.1-1.5v-2.7c0.1-0.8-0.1-1.7-0.6-2.3c-0.6-0.5-1.4-0.8-2.2-0.7c-1.3,0-2.8,0.5-3,1.9l1,0.2c0.2-1,1-1.2,1.9-1.2
	c1.3,0,1.8,0.5,1.8,1.7v0.3H335.4z M336.3,48.8c0,1.3-0.9,2.3-2.2,2.4c0,0,0,0,0,0c-0.8,0-1.5-0.4-1.5-1.2c0-1.5,1.7-1.6,2.9-1.6
	h0.9V48.8z M320.5,44.8v7.1h1.1v-4c0-0.6,0.1-1.1,0.4-1.6c0.3-0.4,0.8-0.7,1.3-0.7c0.5,0,0.9,0.3,1.2,0.7c0.2,0.4,0.3,0.8,0.2,1.2
	v4.5h1.1V48c-0.1-0.6,0.1-1.2,0.4-1.8c0.3-0.5,0.8-0.8,1.4-0.8c0.5,0,1,0.3,1.2,0.7c0.2,0.4,0.2,0.9,0.2,1.4v4.2h1.1v-4.2
	c0.1-0.7,0-1.4-0.3-2c-0.4-0.6-1.1-1-1.8-1c-1,0-2,0.7-2.3,1.7c-0.2-1-1-1.7-2-1.7c-0.9,0-1.8,0.6-2.1,1.5l0,0v-1.4L320.5,44.8z
	 M309.2,44.8v7.1h1.1v-4c0-0.6,0.1-1.1,0.4-1.6c0.3-0.4,0.8-0.7,1.3-0.7c0.5,0,0.9,0.3,1.2,0.7c0.2,0.4,0.3,0.8,0.2,1.2v4.5h1.1V48
	c-0.1-0.6,0.1-1.2,0.4-1.8c0.3-0.5,0.8-0.8,1.4-0.8c0.5,0,1,0.3,1.2,0.7c0.2,0.4,0.2,0.9,0.2,1.4v4.2h1.1v-4.2c0.1-0.7,0-1.4-0.3-2
	c-0.4-0.6-1.1-1-1.8-1c-1,0-2,0.7-2.3,1.6c-0.2-1-1-1.7-2-1.7c-0.9,0-1.8,0.6-2.1,1.5l0,0v-1.4L309.2,44.8z M305.5,47.4
	c-0.9,0-1.8,0.1-2.7,0.4c-0.8,0.3-1.3,1.1-1.3,2c0,1.2,1,2.2,2.3,2.1c0.1,0,0.1,0,0.2,0c1,0.1,2-0.5,2.4-1.5l0.1,1.3h1.1
	c-0.1-0.5-0.2-1-0.1-1.5v-2.7c0.1-0.8-0.1-1.7-0.6-2.3c-0.6-0.5-1.4-0.8-2.2-0.7c-1.3,0-2.8,0.5-3,1.9l1,0.2c0.2-1,1-1.2,1.9-1.2
	c1.2,0,1.8,0.5,1.8,1.7v0.3L305.5,47.4z M306.4,48.7c0,1.3-0.9,2.3-2.2,2.4c0,0,0,0,0,0c-0.8,0-1.5-0.4-1.5-1.2
	c0-1.5,1.7-1.6,2.9-1.6h0.9L306.4,48.7z M300.1,51.8v-4.1c0.1-0.7,0-1.5-0.4-2.2c-0.4-0.6-1.1-1-1.9-1c-1,0-1.9,0.6-2.2,1.5h0v-3.8
	h-1.1v9.5h1.1v-3.6c-0.1-0.7,0.1-1.4,0.5-2c0.3-0.5,0.9-0.7,1.4-0.8c0.6,0,1.1,0.3,1.2,0.8c0.1,0.5,0.2,0.9,0.1,1.4v4.1L300.1,51.8z
	 M285.7,49.3c0.5,1.7,2.1,2.9,3.9,2.7c0.9,0,1.8-0.2,2.5-0.7c0.7-0.5,1.1-1.3,1.1-2.2c0-0.7-0.3-1.4-0.9-1.9
	c-0.5-0.4-1.1-0.6-1.7-0.7l-1.4-0.4c-0.9-0.2-1.7-0.4-1.7-1.5s1.1-1.5,2-1.5c1.1,0,2,0.7,2.3,1.7l1.1-0.3c-0.5-1.5-1.9-2.4-3.4-2.3
	c-1.7,0-3.2,0.8-3.2,2.6c0,0.7,0.3,1.3,0.8,1.8c0.5,0.4,1.1,0.7,1.7,0.8l1.6,0.4c0.8,0.2,1.6,0.6,1.6,1.6c0,0.5-0.2,0.9-0.6,1.2
	c-0.5,0.3-1.1,0.5-1.7,0.5c-1.3,0.1-2.5-0.7-2.8-1.9L285.7,49.3z M280.2,51.8v-4.1c0.1-0.7,0-1.5-0.4-2.2c-0.4-0.6-1.1-1-1.9-1
	c-1,0-1.9,0.6-2.2,1.5l0,0v-3.8h-1.1v9.5h1.1v-3.6c-0.1-0.7,0.1-1.4,0.5-2c0.3-0.4,0.9-0.7,1.4-0.8c0.6,0,1.1,0.3,1.3,0.8
	c0.1,0.5,0.2,0.9,0.1,1.4v4.1L280.2,51.8z M273.7,51l-0.8,0.1c-0.9,0-1.1-0.4-1.1-1.2v-4.2h1.6v-0.9h-1.6v-1.9l-1.1,0.1v1.7h-1.2
	v0.9h1.2v4.1c0,1.4,0.5,2.3,2,2.3l1-0.1L273.7,51z M268.5,44.8h-1.1v3.8c0,0.6-0.2,1.3-0.5,1.8c-0.4,0.4-0.9,0.7-1.5,0.7
	c-0.5,0-0.9-0.3-1.1-0.7c-0.2-0.4-0.3-0.9-0.2-1.3v-4.3H263v4.3c-0.1,0.7,0.1,1.5,0.6,2.1c0.4,0.5,1.1,0.9,1.8,0.8
	c1,0,1.8-0.6,2.2-1.5l0,0v1.4h1L268.5,44.8z M255.9,46.8v-3.4h2.4c0.5-0.1,0.9,0.1,1.3,0.3c0.4,0.3,0.7,0.8,0.7,1.3
	c0,0.5-0.2,0.9-0.5,1.2c-0.4,0.4-1,0.6-1.6,0.5L255.9,46.8z M261.5,51.9l-1.9-4.4c1.1-0.3,1.8-1.3,1.8-2.4c0-0.8-0.4-1.6-1-2.1
	c-0.6-0.4-1.4-0.6-2.2-0.6h-3.6v9.5h1.2v-4.1h2.6l1.8,4.1L261.5,51.9z M243.9,47.6c0-1.1,0.9-2.1,2-2.2c1.1,0,1.9,0.9,1.9,1.9
	c0,0.1,0,0.2,0,0.2H243.9z M247.9,49.7c-0.3,0.8-1,1.4-1.9,1.4c-0.8,0-1.5-0.4-1.8-1.1c-0.2-0.5-0.3-1.1-0.3-1.6h5.1
	c0.1-2-0.9-3.8-3.1-3.8s-3.3,1.8-3.3,3.7s1.1,3.7,3.2,3.7c1.3,0,2.6-0.8,3-2.1L247.9,49.7z M240.8,42.8l-0.5-0.9l-2.8,1.6l0.3,0.6
	L240.8,42.8z M236.6,47.6c0-1.1,0.9-2.1,2-2.2c1.1,0,1.9,0.9,1.9,1.9c0,0.1,0,0.2,0,0.2H236.6z M240.5,49.7c-0.3,0.8-1,1.4-1.9,1.4
	c-0.8,0-1.5-0.4-1.8-1.1c-0.2-0.5-0.3-1.1-0.3-1.6h5.1c0-2-0.9-3.8-3.1-3.8s-3.3,1.8-3.3,3.7s1.1,3.7,3.2,3.7c1.3,0,2.6-0.8,3-2.1
	L240.5,49.7z M231.5,44.8v7.1h1.1v-3.5c0-0.5,0.1-1.1,0.4-1.5c0.3-0.7,1-1.1,1.8-1.1h0.2v-1h-0.4c-1.1,0-1.7,0.9-2.1,1.8l0,0v-1.7
	L231.5,44.8z M228.6,45.8c-0.4-0.7-1.2-1.1-2-1.1c-2,0-2.9,2-2.9,3.7c0,0.9,0.2,1.7,0.7,2.5c0.5,0.7,1.3,1.2,2.1,1.2
	c1,0,1.8-0.5,2.2-1.4l0,0v1.2h1v-9.6h-1.1L228.6,45.8z M228.6,48.8c0,0.5-0.1,1-0.4,1.4c-0.3,0.5-0.9,0.8-1.6,0.9
	c-1.5,0-1.8-1.7-1.8-2.9c0-0.6,0.1-1.3,0.4-1.8c0.3-0.5,0.8-0.9,1.4-0.9c0.6,0,1.2,0.3,1.6,0.8c0.3,0.4,0.4,0.9,0.4,1.4L228.6,48.8z
	 M217.8,44.8h-1v7.1h1.1v-3.7c0-0.7,0.1-1.3,0.6-1.9c0.4-0.4,0.9-0.7,1.5-0.7c0.5,0,0.9,0.2,1.2,0.6c0.2,0.4,0.2,0.9,0.2,1.3v4.4
	h1.1V48c0.1-0.8,0-1.5-0.3-2.2c-0.4-0.7-1.2-1.1-2-1.1c-1,0-1.8,0.6-2.2,1.5l0,0L217.8,44.8z M213.3,48.2h-3l1.5-4.6L213.3,48.2z
	 M212.7,42.3h-1.4l-3.1,9.5h1l0.9-2.8h3.5l1,2.8h1.2L212.7,42.3z M201.3,47.5c-0.9,0-1.8,0.1-2.7,0.4c-0.8,0.3-1.3,1.1-1.3,2
	c0,1.2,1.1,2.2,2.3,2.1c0,0,0.1,0,0.1,0c1,0.1,2-0.5,2.5-1.5l0.1,1.3h1.1c-0.1-0.5-0.2-1-0.1-1.5v-2.7c0.1-0.8-0.1-1.7-0.6-2.3
	c-0.6-0.5-1.4-0.8-2.2-0.7c-1.3,0-2.8,0.5-3,1.9l1,0.2c0.2-1,1.1-1.2,1.9-1.2c1.2,0,1.8,0.5,1.8,1.7v0.3L201.3,47.5z M202.2,48.7
	c0.1,1.3-0.9,2.3-2.2,2.4c0,0,0,0,0,0c-0.8,0-1.5-0.4-1.5-1.2c0-1.5,1.7-1.6,2.9-1.6h0.9L202.2,48.7z M194.8,45.7
	c-0.4-0.7-1.2-1.1-2-1.1c-2,0-2.9,2-2.9,3.7c0,0.9,0.2,1.7,0.7,2.5c0.5,0.8,1.3,1.2,2.1,1.2c1,0,1.8-0.5,2.2-1.4l0,0v1.2h1v-9.5
	h-1.1L194.8,45.7z M194.8,48.7c0,0.5-0.1,1-0.4,1.4c-0.4,0.5-0.9,0.8-1.6,0.9c-1.5,0-1.8-1.7-1.8-2.9c0-0.6,0.1-1.3,0.4-1.8
	c0.3-0.5,0.8-0.9,1.4-0.9c0.6,0,1.2,0.3,1.6,0.8c0.3,0.4,0.4,0.9,0.4,1.4L194.8,48.7z M179.7,48.2c0-0.6,0.1-1.2,0.3-1.8
	c0.3-0.6,0.9-1,1.6-1c0.6,0,1.2,0.3,1.5,0.8c0.3,0.6,0.5,1.3,0.5,1.9c0,0.6-0.1,1.2-0.4,1.8c-0.4,0.9-1.5,1.3-2.4,0.8
	c-0.3-0.2-0.6-0.4-0.8-0.7C179.9,49.5,179.7,48.9,179.7,48.2 M178.6,48.2c0,1.9,0.9,3.7,3,3.7s3.3-1.7,3.3-3.7s-1-3.7-3.1-3.7
	S178.5,46.2,178.6,48.2 M177.9,51l-0.9,0.1c-0.9,0-1.1-0.4-1.1-1.2v-4.2h1.6v-0.9H176v-1.9l-1.1,0.1v1.7h-1.2v0.9h1.2v4.1
	c0,1.4,0.5,2.3,2,2.3l1-0.1L177.9,51z M173.6,51l-0.8,0.1c-0.9,0-1.1-0.4-1.1-1.2v-4.2h1.6v-0.9h-1.6v-1.9l-1.1,0.1v1.7h-1.2v0.9
	h1.2v4.1c0,1.4,0.5,2.3,2,2.3l1-0.1L173.6,51z M163.7,47.6c0-1.2,0.8-2.1,2-2.2c1.1,0,1.9,0.9,1.9,1.9c0,0.1,0,0.2,0,0.2H163.7z
	 M167.7,49.7c-0.3,0.8-1,1.4-1.9,1.4c-0.7,0-1.4-0.4-1.8-1c-0.2-0.5-0.3-1.1-0.3-1.6h5.1c0.1-2-0.9-3.8-3.1-3.8s-3.3,1.8-3.3,3.7
	s1.1,3.7,3.3,3.7c1.3,0,2.6-0.8,3-2.1L167.7,49.7z M158.7,44.7v7.1h1.1v-3.5c0-0.5,0.1-1.1,0.4-1.5c0.3-0.7,1-1.1,1.8-1.1h0.2v-1
	h-0.4c-1.1,0-1.7,0.9-2.1,1.8l0,0v-1.7L158.7,44.7z M156.7,42.3h-1.2v1.2h1.2V42.3z M156.7,44.7h-1.1v7.1h1.1V44.7z M147.8,50.8
	v-7.5h1.7c0.9-0.1,1.8,0.3,2.4,1c0.6,0.8,0.9,1.8,0.9,2.8c0,0.9-0.2,1.8-0.7,2.5c-0.6,0.9-1.6,1.3-2.6,1.2L147.8,50.8z M146.6,51.8
	h3.4c1.2,0.1,2.3-0.5,3-1.5c0.7-1,1-2.1,1-3.3c0-1.2-0.4-2.4-1.2-3.4c-0.8-1-2-1.5-3.3-1.4h-3L146.6,51.8z"/>
<polygon class="st1" points="115.7,0 94.4,12.5 136.8,12.5 "/>
<path class="st2" d="M136.8,41.6c0,0.2-0.2,0.4-0.4,0.4l0,0H94.8c-0.2,0-0.4-0.2-0.4-0.4v-3.7c0-0.2,0.2-0.3,0.4-0.3h41.7
	c0.2,0,0.3,0.1,0.4,0.3c0,0,0,0,0,0V41.6z"/>
<path class="st2" d="M98.6,36.3c2.4-14.2,7.3-18.5,8.7-19.4c0.1,0,0.1-0.1,0.1-0.1v-2.1c0-0.2-0.2-0.4-0.3-0.4H94.8
	c-0.2,0-0.3,0.2-0.3,0.4V36c0,0.2,0.2,0.3,0.3,0.3h3.7C98.6,36.4,98.6,36.3,98.6,36.3C98.6,36.3,98.6,36.3,98.6,36.3"/>
<path class="st2" d="M132.6,36.3c-2.4-14.3-7.3-18.5-8.7-19.4c-0.1,0-0.1-0.1-0.1-0.1v-2.1c0-0.2,0.2-0.4,0.4-0.4l0,0h12.3
	c0.2,0,0.3,0.2,0.3,0.4c0,0,0,0,0,0V36c0,0.2-0.2,0.3-0.3,0.3h-3.7C132.7,36.4,132.6,36.3,132.6,36.3
	C132.6,36.3,132.6,36.3,132.6,36.3"/>
<path class="st2" d="M121.8,35.9c0,0.2-0.2,0.3-0.3,0.3c0,0,0,0,0,0h-11.7c-0.2,0-0.3-0.2-0.3-0.3V14.6c0-0.2,0.1-0.4,0.3-0.4
	c0,0,0,0,0,0h11.7c0.2,0,0.4,0.2,0.4,0.4l0,0L121.8,35.9z"/>
<polygon class="st0" points="0,14.2 0,18.6 5.6,18.6 5.6,36.4 10.8,36.4 10.8,18.6 16.4,18.6 16.4,14.2 "/>
<path class="st0" d="M24.9,26.2h-5.8c0.2-1.9,1-3.4,3.1-3.4S24.8,24.4,24.9,26.2 M29.6,29c0.2-2.3-0.4-4.5-1.7-6.4
	c-1.4-1.9-3.7-2.9-6-2.9c-5.1,0-8,3.9-8,8.8s3.2,8.3,8.1,8.3c3.5,0.1,6.6-2.2,7.5-5.7l-4.4-0.3c-0.1,1.5-1.4,2.7-2.9,2.6
	c-2.1,0-3.2-1.6-3.2-3.5V29L29.6,29z"/>
<path class="st0" d="M40.4,32.2c-0.5,0.8-1.4,1.3-2.4,1.3c-1.1,0.1-2-0.7-2.1-1.7c0-0.1,0-0.2,0-0.3c0-2.3,3.3-2.7,5.2-2.9v0.6
	C41.2,30.2,41,31.3,40.4,32.2 M45.9,26.3c0-2,0.2-3.8-1.5-5.1c-1.5-1-3.4-1.6-5.2-1.5c-3.5,0-7.3,1.2-7.8,5.1l4.5,0.4
	c0-1.6,1.3-2.4,2.8-2.4c0.7,0,1.4,0.2,1.9,0.8c0.4,0.7,0.5,1.4,0.4,2.2v0.4c-2.2,0.1-4.4,0.4-6.5,1c-2.2,0.6-3.7,2.6-3.7,4.9
	c0,3.1,2.2,4.7,5.2,4.7c2.1,0.1,4.2-1,5.3-2.8c0,0.9,0,1.7,0.2,2.6h4.7c-0.2-0.8-0.3-1.6-0.3-2.5L45.9,26.3z"/>
<path class="st0" d="M58.2,20h-3.5v-5.2l-4.2,0.3L50.1,20h-2.9v3.8h2.7V31c0,1.6,0,3.6,1.3,4.7c1.3,0.8,2.7,1.2,4.2,1.1
	c1,0,2-0.1,3-0.4v-3.6c-0.5,0.1-1.1,0.1-1.6,0.1c-2,0-2.2-0.5-2.2-2.6v-6.5h3.5L58.2,20z"/>
<path class="st0" d="M60.6,20v16.4h4.7v-6.3c0-2.9,0.5-5.9,4.1-5.6v-4.8l-0.8-0.1c-2.1-0.1-3,1.7-3.5,3.4H65v-3H60.6z"/>
<path class="st0" d="M81.2,28.4c0,2-0.1,5.2-2.8,5.2s-2.7-4-2.7-5.9s0.2-4.9,2.7-4.9c1-0.1,1.9,0.5,2.2,1.5
	C81,25.6,81.2,27,81.2,28.4 M86.2,28.3c0-4.8-2.8-8.7-7.9-8.7s-7.8,3.7-7.8,8.5s2.8,8.5,7.8,8.5C83.2,36.7,86.3,33,86.2,28.3"/>
<polygon class="st0" points="162.4,18.5 162.4,14.2 146.6,14.2 146.6,36.4 151.8,36.4 151.8,27.7 160.2,27.7 160.2,23.6 151.8,23.6 
	151.8,18.5 "/>
<path class="st0" d="M304.4,26.2h-5.8c0.2-1.9,1-3.4,3.1-3.4S304.2,24.4,304.4,26.2 M309.1,29c0.1-2.3-0.5-4.5-1.7-6.4
	c-1.4-1.9-3.7-2.9-6-2.9c-5.1,0-8,3.9-8,8.8s3.2,8.3,8.1,8.3c3.5,0.1,6.6-2.3,7.5-5.7l-4.4-0.3c-0.1,1.5-1.4,2.7-2.9,2.6
	c-2.1,0-3.2-1.6-3.2-3.5V29L309.1,29z"/>
<path class="st0" d="M311,36.4h4.8v-8.8c-0.1-1,0.1-2,0.5-2.9c0.4-0.7,1.2-1.2,2-1.2c2.4,0,2.2,2.5,2.2,4.1v8.8h4.8V26.2
	c0-1.5,0-3.5-0.9-4.8c-1-1.2-2.5-1.9-4-1.8c-2.1-0.1-4,1.1-4.7,3.1h-0.1V20h-4.5L311,36.4z"/>
<path class="st0" d="M337.4,20h-3.5v-5.2l-4.1,0.3l-0.5,4.9h-2.9v3.8h2.7V31c0,1.6,0,3.6,1.3,4.7c1.3,0.8,2.8,1.2,4.2,1.1
	c1,0,2-0.1,3-0.4v-3.6c-0.5,0.1-1.1,0.1-1.6,0.1c-2,0-2.2-0.5-2.2-2.6v-6.5h3.5V20z"/>
<rect x="340" y="13.9" class="st0" width="4.8" height="4.6"/>
<rect x="340" y="20" class="st0" width="4.8" height="16.4"/>
<path class="st0" d="M163.7,20v16.4h4.8v-6.3c0-2.9,0.4-5.9,4.1-5.6v-4.8l-0.8-0.1c-2.1-0.1-3,1.7-3.5,3.4h-0.1v-3H163.7z"/>
<path class="st0" d="M183.9,29.2c0.1,1-0.1,2.1-0.6,3c-0.5,0.8-1.4,1.3-2.4,1.3c-1.1,0.1-2-0.7-2.1-1.7c0-0.1,0-0.2,0-0.3
	c0-2.3,3.3-2.7,5.1-2.9V29.2z M188.8,26.3c0-2,0.2-3.8-1.5-5.1c-1.5-1-3.4-1.6-5.2-1.5c-3.5,0-7.4,1.2-7.8,5.1l4.5,0.4
	c0-1.6,1.3-2.4,2.8-2.4c0.7,0,1.4,0.2,1.9,0.8c0.4,0.7,0.5,1.4,0.4,2.2v0.4c-2.2,0.1-4.4,0.4-6.5,1c-2.2,0.6-3.7,2.6-3.7,4.9
	c0,3.1,2.3,4.7,5.2,4.7c2.2,0.1,4.2-1,5.2-2.9c0,0.9,0,1.7,0.2,2.6h4.7c-0.2-0.8-0.4-1.6-0.3-2.5L188.8,26.3z"/>
<path class="st0" d="M191.5,36.4h4.7v-8.8c-0.1-1,0.1-2,0.6-2.9c0.4-0.7,1.2-1.2,2-1.2c2.4,0,2.2,2.5,2.2,4.1v8.8h4.8V26.2
	c0-1.5,0-3.5-0.9-4.8c-1-1.2-2.5-1.9-4-1.8c-2.1-0.1-4,1.1-4.7,3.1h-0.1V20h-4.5L191.5,36.4z"/>
<path class="st0" d="M223,26c-0.3-3.9-3.4-6.3-7.2-6.3c-5.2,0-8.2,3.7-8.2,8.7c0,4.8,2.9,8.4,7.9,8.4c4,0,7.1-2.4,7.5-6.5l-4.5-0.3
	c-0.2,1.5-1,2.8-2.7,2.8c-2.7,0-2.7-2.8-2.7-4.8s0.3-4.7,2.9-4.7c1.7,0,2.5,1.5,2.5,3L223,26z"/>
<path class="st0" d="M235.2,28.4c0,2-0.1,5.2-2.8,5.2s-2.7-4-2.7-5.9s0.1-4.9,2.7-4.9c1-0.1,2,0.5,2.3,1.5
	C235.1,25.6,235.2,27,235.2,28.4 M240.3,28.4c0-4.8-2.8-8.7-7.9-8.7s-7.8,3.7-7.8,8.5s2.8,8.5,7.8,8.5
	C237.2,36.7,240.3,33,240.3,28.4"/>
<path class="st0" d="M260.4,21.2c0,0.7-0.2,1.4-0.7,2c-0.9,1-2,1-3.2,1h-2.9v-5.9h2.9c1-0.1,2,0.1,2.8,0.6
	C260,19.5,260.4,20.3,260.4,21.2 M265.6,21c0-2.2-1-4.3-2.9-5.5c-1.8-1.2-3.8-1.2-6-1.2h-8.4v22.2h5.2v-8.2h3.3c2.4,0,4.4,0,6.3-1.5
	C264.7,25.2,265.6,23.1,265.6,21"/>
<path class="st0" d="M275.9,29.2c0.1,1-0.1,2.1-0.6,3c-0.5,0.8-1.4,1.3-2.4,1.3c-1.1,0.1-2-0.7-2.1-1.7c0-0.1,0-0.2,0-0.3
	c0-2.3,3.3-2.7,5.1-2.9L275.9,29.2z M280.8,26.3c0-2,0.2-3.8-1.5-5.1c-1.5-1-3.4-1.6-5.2-1.5c-3.5,0-7.3,1.2-7.8,5.1l4.5,0.4
	c0-1.6,1.3-2.4,2.8-2.4c0.7,0,1.4,0.2,1.9,0.8c0.4,0.7,0.5,1.4,0.4,2.2v0.4c-2.2,0.1-4.4,0.4-6.5,1c-2.2,0.6-3.7,2.6-3.7,4.9
	c0,3.1,2.2,4.7,5.2,4.7c2.1,0.1,4.2-1,5.2-2.9c0,0.9,0,1.7,0.2,2.6h4.7c-0.2-0.8-0.3-1.6-0.3-2.5L280.8,26.3z"/>
<path class="st0" d="M283.5,20v16.4h4.7v-6.3c0-2.9,0.5-5.9,4.1-5.6v-4.8l-0.8-0.1c-2.1-0.1-3,1.7-3.5,3.4h-0.1v-3H283.5z"/>
</svg>
