<?xml version="1.0" encoding="utf-8"?>
<!-- Generator: Adobe Illustrator 26.5.0, SVG Export Plug-In . SVG Version: 6.00 Build 0)  -->
<svg version="1.1" id="Livello_1" xmlns="http://www.w3.org/2000/svg" xmlns:xlink="http://www.w3.org/1999/xlink" x="0px" y="0px"
	 viewBox="0 0 1080 1080" style="enable-background:new 0 0 1080 1080;" xml:space="preserve">
<style type="text/css">
	.st0{fill:#E30A18;}
</style>
<g>
	<path class="st0" d="M66.14,474.6l28.61,3.52l-4.1,33.29l-33.17-4.08c-3.11-0.38-5.35-0.22-6.7,0.48c-1.35,0.7-2.15,2.03-2.39,3.97
		c-0.22,1.79,0.26,3.16,1.45,4.09c1.19,0.94,3.3,1.59,6.34,1.97l128.36,15.8c2.96,0.37,5.11,0.2,6.46-0.51
		c1.35-0.7,2.15-2.03,2.39-3.97c0.23-1.87-0.19-3.24-1.27-4.13c-1.08-0.88-3.17-1.52-6.29-1.9l-49.52-6.1l4.1-33.29l44.73,5.51
		c17.13,2.11,27.63,5.73,31.5,10.87c3.87,5.14,4.81,15.81,2.82,32c-2.05,16.66-5.6,27.02-10.64,31.06
		c-5.04,4.04-16.09,5.01-33.14,2.92L56.68,551.45c-17.29-2.13-27.79-5.73-31.51-10.81c-3.72-5.08-4.57-15.84-2.55-32.27
		c2.06-16.74,5.59-27.08,10.57-31.01C38.18,473.43,49.16,472.51,66.14,474.6z"/>
	<path class="st0" d="M63.47,363.51l14.44-30.14l176.49,84.54l-14.44,30.14L63.47,363.51z"/>
	<path class="st0" d="M140.9,237.07l20.91-21.36l82.47,55.21l1.07-1.09L175.22,202l20.25-20.69l139.84,136.9l-20.75,21.19
		L230,282.47l-1.07,1.09l72.14,69.63l-20.33,20.77L140.9,237.07z"/>
	<path class="st0" d="M359.75,255.91L311.9,146.22c-6.87-15.75-8.98-26.62-6.33-32.61c2.65-5.99,11.49-12.27,26.52-18.82
		c14.74-6.43,25.2-8.49,31.39-6.18c6.18,2.31,12.65,11.19,19.39,26.65l47.85,109.69c6.37,14.6,8.74,24.75,7.13,30.46
		c-1.62,5.71-7.08,10.94-16.39,15.69l1.67,0.3c3.63-0.9,6.65-1.73,9.06-2.48c2.41-0.75,4.62-1.57,6.64-2.45
		c1.15-0.5,3.1-1.52,5.85-3.07c0.22-0.09,0.43-0.19,0.65-0.28l-3.6,24.42c-6.66,1.62-13.5,1.93-20.52,0.93
		c-7.03-1-14.57-3.38-22.63-7.14c-9.43,2.92-16.69,3-21.78,0.26C371.71,278.86,366.02,270.29,359.75,255.91z M392.2,247.02
		c1.16,2.66,2.39,4.41,3.7,5.25c1.31,0.84,2.79,0.9,4.44,0.18c1.8-0.78,2.81-1.89,3.05-3.32c0.23-1.43-0.26-3.54-1.49-6.35
		L350.2,124.25c-1.22-2.8-2.46-4.6-3.7-5.38c-1.24-0.78-2.72-0.8-4.45-0.05c-1.8,0.78-2.83,1.86-3.09,3.21
		c-0.26,1.36,0.25,3.51,1.53,6.46L392.2,247.02z"/>
	<path class="st0" d="M486.37,54.13l33.41-0.96l4.67,162.56c0.09,3.06,0.56,5.22,1.42,6.49c0.86,1.27,2.23,1.88,4.11,1.82
		c1.88-0.05,3.18-0.7,3.89-1.94c0.71-1.24,1.02-3.46,0.93-6.68l-4.67-162.56l33.52-0.96L568.2,210c0.49,17.02-1.5,27.83-5.96,32.43
		c-4.46,4.6-14.88,7.14-31.27,7.61c-16.78,0.48-27.53-1.46-32.25-5.84c-4.72-4.38-7.32-15.04-7.81-31.97L486.37,54.13z"/>
	<path class="st0" d="M698.41,76.88l41.74,15.39L691,282.72l-30.47-11.23l12.09-39.94l-13.03-4.8l-16.73,38.23l-30.25-11.15
		L698.41,76.88z M705.51,120.89l-35.82,81.86l10.6,3.91l26.11-85.44L705.51,120.89z"/>
	<path class="st0" d="M861.36,162.06l22.09,20.13l-52.22,84.4l1.13,1.03l65.27-72.51l21.4,19.5l-131.8,144.66l-21.92-19.97
		l53.87-86.55l-1.13-1.03l-67,74.59l-21.49-19.58L861.36,162.06z"/>
	<path class="st0" d="M987.15,305.02l30.45,58.97l-23.11,11.93l-7.56-14.64l-150.78,77.85l-15.33-29.69l150.78-77.85l-7.56-14.64
		L987.15,305.02z"/>
	<path class="st0" d="M1051.85,477.08l6.23,44.04l-191,46.98l-4.55-32.16l40.9-8.28l-1.94-13.75l-41.59,3.39l-4.52-31.93
		L1051.85,477.08z M1016.46,504.19l-89.06,7.25l1.58,11.19l87.61-17.5L1016.46,504.19z"/>
</g>
</svg>
