<?xml version="1.0" encoding="UTF-8"?><svg id="Livello_1" xmlns="http://www.w3.org/2000/svg" viewBox="0 0 60 31.99"><defs><style>.cls-1{fill:#e30a18;}</style></defs><path class="cls-1" d="M57.21,28.46v.07s-6.2,.68-6.2,.68l-.04-.79,6.24,.05h0Zm2.63-1.67l-13.73-.63,.12,2.25,2.92,.02,.05,.98-2.9,.32,.12,2.27,13.58-2.09-.16-3.11h0Zm-2.99-10.31l-1.68,.7,.44,1.06-10.96,4.53,.89,2.16,10.96-4.53,.44,1.06,1.68-.69-1.77-4.28h0Zm-6.8-8.95l-10,9.33,1.39,1.49,5.09-4.82,.07,.07-4.24,5.73,1.41,1.51,10-9.33-1.38-1.48-4.96,4.68-.07-.07,4.11-5.59-1.42-1.53h0Zm-9.02-2.49l.06,.03-2.25,5.82-.72-.33,2.91-5.52h0Zm-.28-3.1l-6.88,11.9,2.05,.93,1.36-2.58,.89,.4-1.05,2.72,2.07,.94,4.39-13.02-2.84-1.29h0ZM27.17,.01l.03,11.05c0,2.34,.34,2.73,2.74,2.72,2.36,0,2.68-.43,2.67-2.73l-.03-11.05h-2.34s.03,11.37,.03,11.37c0,.39-.07,.59-.35,.59-.29,0-.37-.2-.37-.59L29.51,0h-2.34Zm-5.21,13.18l-3.66-8.27c-.15-.34-.18-.54,.11-.67,.26-.12,.41,.02,.57,.37l3.66,8.27c.15,.34,.17,.55-.11,.67-.25,.11-.41-.02-.57-.37m-2.26,.63c.72,1.63,1.13,2.26,2.71,1.76,1.08,.5,2.06,.66,3.02,.41l.24-1.71c-.16,.09-.31,.17-.45,.23-.34,.15-.7,.25-1.1,.36l-.12-.02c1.55-.79,1.38-1.53,.63-3.23l-3.38-7.66c-.91-2.06-1.41-2.36-3.55-1.41-2.23,.99-2.3,1.53-1.39,3.6l3.38,7.66h0Zm-14.03-1.54l10.25,9.05,1.35-1.53-5.29-4.6,.07-.08,6.11,3.66,1.37-1.55L9.28,8.19l-1.34,1.52,5.14,4.49-.07,.08-5.96-3.55-1.38,1.57h0Zm-3.8,7.35l12.59,5.34,.91-2.16L2.78,17.47l-.91,2.15h0Zm1.09,5.94c-2.35-.17-2.74,.14-2.92,2.51-.18,2.42,.21,2.72,2.53,2.89l8.36,.61c2.35,.17,2.76-.14,2.94-2.52,.17-2.37-.24-2.7-2.54-2.87l-3.14-.23-.17,2.33,3.48,.25c.39,.03,.57,.11,.55,.39s-.2,.37-.6,.34l-9.02-.66c-.39-.03-.58-.13-.56-.4,.02-.3,.23-.37,.62-.34l2.34,.17,.17-2.33-2.02-.15h0Z"/></svg>