<?xml version="1.0" encoding="utf-8"?>
<!-- Generator: Adobe Illustrator 26.5.0, SVG Export Plug-In . SVG Version: 6.00 Build 0)  -->
<svg version="1.1" id="Livello_1" xmlns="http://www.w3.org/2000/svg" xmlns:xlink="http://www.w3.org/1999/xlink" x="0px" y="0px"
	 viewBox="0 0 1080 1080" style="enable-background:new 0 0 1080 1080;" xml:space="preserve">
<style type="text/css">
	.st0{fill:#E30A18;}
</style>
<g>
	<path class="st0" d="M72.01,479.14l27.44,3.25l-3.78,31.92l-31.81-3.77c-2.99-0.35-5.13-0.19-6.42,0.49
		c-1.29,0.68-2.05,1.95-2.27,3.82c-0.2,1.72,0.27,3.02,1.41,3.92c1.14,0.89,3.17,1.51,6.08,1.86l123.1,14.59
		c2.84,0.34,4.9,0.17,6.19-0.52c1.29-0.68,2.05-1.95,2.27-3.82c0.21-1.79-0.2-3.11-1.24-3.95c-1.04-0.84-3.05-1.44-6.03-1.79
		l-47.49-5.63l3.78-31.92l42.9,5.08c16.43,1.95,26.51,5.38,30.24,10.28c3.73,4.91,4.68,15.13,2.84,30.66
		c-1.89,15.98-5.25,25.92-10.06,29.82c-4.81,3.9-15.4,4.88-31.75,2.94L63.27,552.85c-16.58-1.96-26.66-5.37-30.25-10.23
		c-3.59-4.85-4.45-15.16-2.58-30.92c1.9-16.05,5.24-25.98,10-29.77C45.2,478.15,55.73,477.22,72.01,479.14z"/>
	<path class="st0" d="M70.43,367.9l13.75-28.93l169.43,80.49l-13.75,28.93L70.43,367.9z"/>
	<path class="st0" d="M147.15,242.4l20-20.51l79.16,52.76l1.02-1.05l-67.34-64.87l19.37-19.87L333.66,319.8l-19.84,20.35
		l-81.17-54.41l-1.02,1.05l69.28,66.6l-19.45,19.95L147.15,242.4z"/>
	<path class="st0" d="M360.92,257.25l-46.18-105.01c-6.63-15.07-8.68-25.49-6.16-31.24c2.52-5.75,10.98-11.79,25.36-18.12
		c14.11-6.21,24.13-8.21,30.07-6.01c5.94,2.2,12.16,10.69,18.67,25.49l46.18,105.01c6.15,13.97,8.45,23.7,6.92,29.18
		c-1.53,5.48-6.76,10.51-15.67,15.08l1.6,0.28c3.48-0.87,6.37-1.67,8.68-2.4c2.31-0.73,4.43-1.52,6.35-2.36
		c1.1-0.48,2.97-1.47,5.6-2.96c0.21-0.09,0.41-0.18,0.62-0.27l-3.38,23.42c-6.37,1.57-12.93,1.89-19.67,0.95
		c-6.74-0.94-13.98-3.2-21.71-6.78c-9.03,2.82-15.99,2.92-20.87,0.31C372.44,279.21,366.97,271.02,360.92,257.25z M392,248.63
		c1.12,2.55,2.31,4.22,3.56,5.02c1.26,0.8,2.68,0.86,4.26,0.16c1.72-0.76,2.69-1.82,2.91-3.19c0.22-1.37-0.26-3.4-1.44-6.08
		l-49.9-113.47c-1.18-2.68-2.37-4.4-3.56-5.15c-1.19-0.75-2.61-0.76-4.27-0.03c-1.72,0.76-2.71,1.79-2.96,3.09
		c-0.25,1.3,0.25,3.36,1.49,6.18L392,248.63z"/>
	<path class="st0" d="M486.3,62.39l32.02-1.04l5.04,155.8c0.09,2.93,0.56,5,1.39,6.22c0.83,1.21,2.15,1.79,3.95,1.73
		c1.8-0.06,3.04-0.68,3.72-1.87c0.67-1.19,0.96-3.32,0.86-6.4l-5.04-155.8L560.37,60l4.9,151.51c0.53,16.31-1.34,26.68-5.6,31.1
		c-4.26,4.43-14.24,6.89-29.95,7.4c-16.08,0.52-26.39-1.31-30.93-5.49c-4.54-4.18-7.07-14.39-7.59-30.62L486.3,62.39z"/>
	<path class="st0" d="M694.29,84.13l40.07,14.57l-46.28,182.76l-29.26-10.64l11.42-38.33l-12.51-4.55l-15.87,36.72l-29.05-10.56
		L694.29,84.13z M701.29,126.28l-33.98,78.62l10.18,3.7l24.65-82.01L701.29,126.28z"/>
	<path class="st0" d="M854.85,167.41l21.28,19.18l-49.61,81.17l1.09,0.98l62.17-69.84l20.61,18.57L784.84,356.81l-21.12-19.03
		l51.17-83.25l-1.09-0.98l-63.83,71.84l-20.7-18.65L854.85,167.41z"/>
	<path class="st0" d="M979.15,307.61l29.49,56.36l-22.09,11.56l-7.32-13.99l-144.11,75.41l-14.85-28.38l144.11-75.41l-7.32-13.99
		L979.15,307.61z"/>
	<path class="st0" d="M1043.52,476.93l6.16,42.19l-182.87,45.84l-4.5-30.8l39.17-8.11l-1.92-13.17l-39.85,3.42l-4.46-30.58
		L1043.52,476.93z M1009.72,503.07l-85.33,7.33l1.56,10.71l83.9-17.15L1009.72,503.07z"/>
</g>
</svg>
